<svg id="Camada_2" xmlns="http://www.w3.org/2000/svg" viewBox="0 0 767.74 720">
  <g id="Camada_1-2" data-name="Camada 1">
    <path fill="currentColor" d="M753.57,691.65h-53.6v-293.64c0-.8-.07-1.59-.2-2.36,1.03-5.74-1.57-11.78-6.92-14.84l-63.56-36.32v-121.97c0-.71-.07-1.34-.16-1.83-.13-1.19-.4-2.34-.81-3.42-.07-.18-.14-.36-.22-.54-.65-1.53-1.57-2.93-2.72-4.15-.24-.26-.47-.48-.67-.65-.44-.44-1.3-1.25-2.57-1.98l-104.79-59.75v-64.29c0-.85-.1-1.58-.21-2.11-.11-.82-.32-1.86-.75-3.04-.22-.58-.46-1.05-.65-1.4-.61-1.21-1.33-2.25-2.17-3.16-.47-.51-.91-.89-1.28-1.19-.44-.41-1.25-1.1-2.35-1.69L377.41,1.67c-.83-.46-1.61-.73-2.16-.89-.65-.23-1.43-.47-2.35-.61-.68-.11-1.38-.17-2.12-.17h-.36c-.66.01-1.68.06-2.87.32-.86.19-1.57.44-2.19.7-.54.18-1.31.49-2.1.98l-117.82,71.67c-1.1.67-1.88,1.41-2.3,1.84-.22.2-.48.45-.73.72-1.07,1.16-1.93,2.49-2.54,3.89-.09.19-.17.38-.25.59-.03.08-.06.16-.09.24-.36,1-.61,2.05-.74,3.14-.09.51-.18,1.18-.18,1.94v172.87l-32.72-11.22c-.56-.2-1.14-.34-1.73-.44-.83-.16-1.49-.21-1.87-.23,0,0,0,0-.02,0-.25-.02-.73-.07-1.32-.07-.39,0-.77.02-1.15.06-1.31.13-2.31.46-2.75.61-.33.1-.91.27-1.62.58-.53.21-1.05.47-1.55.77l-116.36,70.7c-.19.12-.38.24-.57.38-.66.44-1.25.94-1.79,1.52-.92.87-1.68,1.79-2.29,2.78-.65,1.05-1,1.98-1.17,2.41-.29.75-.51,1.52-.66,2.3-.17.65-.36,1.58-.36,2.68l-1.38,359.94H14.17c-7.81,0-14.17,6.36-14.17,14.17s6.36,14.17,14.17,14.17h739.39c7.82,0,14.17-6.36,14.17-14.17s-6.36-14.17-14.17-14.17ZM187.04,286.28v405.37h-89.38l1.36-351.89,88.02-53.48ZM600.95,230.52v97.79l-45.21-25.83c-.32-.21-.65-.4-.99-.56-.25-.12-.7-.35-1.33-.59-.08-.03-.16-.06-.24-.09-1.01-.42-2.1-.68-3.25-.75-.34-.04-.92-.1-1.6-.1-1.02,0-1.84.15-2.22.22-.07,0-.14.02-.2.03-.29.04-.66.11-1.09.21-.25.06-.49.13-.73.21-.24.07-.48.15-.72.24-.37.13-.73.29-1.09.47-.26.13-.5.26-.7.38-.35.18-.7.38-1.03.6l-23.19,15.29v-135.19l83.59,47.67ZM562.51,691.65v-352.66l109.12,62.35v290.31h-109.12ZM534.16,510.91v180.75h-104.06l-1.38-247.25,105.44,66.5ZM357.66,38.59v327.49l-38.34-24.18c-.94-.6-1.82-.96-2.49-1.18-.48-.21-1.27-.51-2.24-.71-.83-.17-1.68-.26-2.58-.26-.2,0-.39,0-.59.01h-.19c-.71,0-1.38.06-2.04.18-1.15.21-2.05.54-2.62.78-.6.2-1.36.5-2.19.99-.06.03-37.42,23.28-37.42,23.28V93.75l90.69-55.17ZM348.58,691.65h-22.69v-312.1l74.38,46.91,1.48,265.19h-24.83l-.96-235.71c0-7.82-6.36-14.17-14.17-14.17-.12,0-.24,0-.36,0-7.75.28-13.81,6.54-13.81,14.29l.96,235.59ZM428.36,410.67l105.8-69.76v136.48l-105.8-66.72ZM489.01,94.24v242.5l-86.96,57.34-17.25-10.88V37.89l104.21,56.35ZM241.98,691.65h-26.59v-261.16l82.16-51.12v312.29h-27.22l-3.36-231.88c-.05-7.77-6.39-14.08-14.17-14.08,0,0-.33,0-.45,0-7.57.28-13.72,6.67-13.72,14.25,0,.05,3.36,231.71,3.36,231.71ZM238.62,382.64l-23.24,14.46v-116.21l23.24,7.97v93.78Z"/>
  </g>
</svg>