<?xml version="1.0" encoding="UTF-8"?>
<svg id="Camada_2" data-name="Camada 2" xmlns="http://www.w3.org/2000/svg" viewBox="0 0 497.54 700">
  <g id="Camada_1-2" data-name="Camada 1">
    <g>
      <path fill="currentColor" d="M251.74,230.17l-12.42-25.87c49.44-46.18,42.3-126.68-16.6-161.07C141.12-4.43,46.98,76.09,77.86,163.58c22.9-5.27,43.2-9.8,66.91-6.01,98.72,15.75,137.52,137.34,69.84,210.31-3.05,3.28-10.86,7.05-12.69,11.04-3.35,7.29,4.91,19.11,2.01,28.91-1.55,5.23-10.43,6.89-10.83,8.49-.89,3.62,1.62,12.17,2.45,16.36,14.07,71.29,33.24,141.82,47.77,213.03l-27.19,54.28-42.02-33.89c-4.84-3.89-3.07-10.89-6.97-15.18-3.26-3.59-29.25-16.06-29.3-18.13l18.75-28.26-29.82-19.2,20.5-28.49-29.92-18.95,18.76-28.3-29.9-19.18,20.11-28.72-6.05-28.88c-22.05,2.78-17.3-16.52-24.25-30.34C-8.42,378.45-34.63,240.65,52.18,178.6,10.63,73.24,113.47-32.72,220.05,9.51c91.37,36.2,110.06,161.03,31.69,220.66ZM142.55,223.85c4.54-30.24-23.55-49.41-50.61-36.37-.88,1.16,7.3,11.33,8.63,12.7,4.77,4.91,37.58,27.99,41.98,23.67ZM118.82,246.02l-17.6-8.52-25.1-19.97c3.55,21.51,18,34.47,40.36,31.63,2.2-.28,4.58-.84,2.34-3.14Z"/>
      <path fill="currentColor" d="M351.39,287.15c10.83,20.76,22.53,32.05-6.15,44.46l.12,3.4,150.85,238.39c7.4,15.16-17.86,31.86-30.01,30.08-9.25-1.36-16.43-15.81-19.92-23.66-12.47,2.91-29.75,26.51-40.87,14.79-21.18-22.33,10.11-27.02,23.39-39.48l-.5-2.27-6.2-7.65c-7.81,2.06-25.48,18.36-31.95,18.63-5.41.23-15.69-16.04-14.8-20.82,1.17-6.25,24.84-18.18,31.32-21.88l-5.66-11.07c-10.29.53-31.22,25.64-40.21,14.81-2.84-3.42-9.06-15.06-7.07-19.39,2.16-4.72,30.42-18.6,30.66-21.36l-78.86-125.11-2.14-.55c-22.36,18.23-29.44,7.76-41.51-12.78l-24.39,14.21c3.94-9.23,9.99-17.11,13.85-26.48,11.77-28.6,12.7-59.13,5.9-89.08,2.32-4.08,38.98-22.66,45.66-28.63,11.78-10.54-1.87-19.31-1.99-25.83-.08-4.33,8.99-25.43,10.46-33.73,1.72-9.73,2.64-18.86,2.06-28.8,8.4,6.38,13.82,16.67,19.63,25.45,15.86,23.99,36.13,53.68,49.66,78.49,17.54,32.19-5.66,43.03-31.33,55.87Z"/>
      <path fill="currentColor" d="M258.03,143.16c3.08,9.17-20.75,51.97-27.5,50.55l-19.92-19.71,47.41-30.85Z"/>
    </g>
  </g>
</svg>