<?xml version="1.0" encoding="UTF-8"?>
<svg id="Camada_2" data-name="Camada 2" xmlns="http://www.w3.org/2000/svg" viewBox="0 0 499.39 704.4">
  <g id="Camada_1-2" data-name="Camada 1">
    <path fill="currentColor" d="M456.35,650.61l-80.41-16.69-50.3,64.91c-6.92,8.92-20.96,6.77-24.86-3.83l-51.08-138.49-51.09,138.49c-3.9,10.6-17.94,12.76-24.86,3.83l-50.31-64.91-80.41,16.69c-11.05,2.3-20.33-8.46-16.41-19.06l75.89-205.74c5.98,15.25,10.08,33.08,22.31,40.16,17.69,10.23,46.89-6.04,67.09-.65,11.19,2.99,21.58,13.74,32.4,22.38,8.05,6.43,16.35,11.68,25.39,11.68s17.32-5.25,25.37-11.68c10.82-8.64,21.22-19.4,32.41-22.39,20.2-5.4,49.4,10.88,67.09.65,12.23-7.08,16.32-24.91,22.31-40.16l75.89,205.74c3.92,10.6-5.36,21.36-16.41,19.06Z"/>
    <path fill="currentColor" d="M465.33,307.48c5.22-19.52,34.07-36.62,34.07-57.79s-28.85-38.26-34.07-57.78c-5.4-20.2,10.88-49.4.65-67.09-10.38-17.94-43.9-18.38-58.47-32.93-14.56-14.56-15-48.08-32.93-58.47-17.69-10.23-46.89,6.04-67.09.65C287.96,28.85,270.86,0,249.7,0s-38.27,28.85-57.79,34.07c-20.2,5.4-49.4-10.88-67.08-.65-17.94,10.38-18.38,43.9-32.94,58.47-14.56,14.56-48.08,15-58.47,32.93-10.23,17.69,6.04,46.89.65,67.09C28.85,211.43,0,228.53,0,249.69s28.85,38.27,34.07,57.79c5.4,20.2-10.88,49.4-.65,67.08,10.38,17.94,43.9,18.38,58.47,32.94,4.63,4.63,7.84,11.19,10.63,18.31,5.98,15.25,10.08,33.08,22.31,40.16,17.69,10.23,46.89-6.04,67.09-.65,11.19,2.99,21.58,13.74,32.4,22.38,8.05,6.43,16.35,11.68,25.39,11.68s17.32-5.25,25.37-11.68c10.82-8.64,21.22-19.4,32.41-22.39,20.2-5.4,49.4,10.88,67.09.65,12.23-7.08,16.32-24.91,22.31-40.16,2.79-7.12,6-13.67,10.63-18.31,14.56-14.56,48.08-15,58.47-32.94,10.23-17.68-6.04-46.89-.65-67.08ZM445.48,362.74c-9.4,16.24-39.74,16.64-52.92,29.82-2.03,2.04-3.76,4.48-5.29,7.19-8.39,14.86-10.79,37.79-24.52,45.73-16.01,9.26-42.45-5.47-60.73-.58-4.76,1.27-9.37,4.1-13.93,7.55-12.35,9.35-24.38,23.29-38.38,23.29s-26.03-13.93-38.39-23.29c-4.56-3.46-9.17-6.28-13.93-7.55-18.29-4.88-44.72,9.85-60.73.58-13.74-7.95-16.14-30.88-24.52-45.74-1.53-2.71-3.26-5.15-5.29-7.18-13.18-13.18-43.53-13.58-52.92-29.82-9.26-16.01,5.47-42.45.58-60.73-4.73-17.67-30.84-33.15-30.84-52.32s26.11-34.64,30.84-52.31c4.88-18.29-9.85-44.72-.58-60.73,9.4-16.24,39.74-16.64,52.92-29.82,13.18-13.18,13.58-43.53,29.82-52.92,16.01-9.26,42.45,5.47,60.73.58,17.67-4.72,33.15-30.84,52.32-30.84s34.64,26.12,52.31,30.84c18.29,4.89,44.72-9.84,60.73-.58,16.24,9.4,16.64,39.74,29.82,52.92,13.18,13.18,43.53,13.58,52.92,29.82,9.26,16.01-5.47,42.44-.58,60.73,4.73,17.67,30.85,33.15,30.85,52.31s-26.12,34.64-30.85,52.32c-4.88,18.29,9.85,44.72.58,60.73Z"/>
    <path fill="currentColor" d="M132.31,233.93c-7.87-10.62-11.85-23.95-11.85-39.77,0-23.53,12.99-42.81,37.57-55.77,22.51-11.87,54.54-18.14,92.65-18.14,51.21,0,74.88,8.65,114.09,22.98l7.19,2.63-2.87,7.1c-3.87,9.6-11.13,17.37-20.44,21.89-9.32,4.52-19.92,5.41-29.85,2.5-25.37-7.45-51.72-8.45-74.15-8.45-20.39,0-40.56,3.32-55.35,9.11-12.59,4.93-20.42,11.41-20.42,16.91,0,5.71,1.64,11.58,13.57,15.84,11.39,4.04,29.96,2.71,51.47,1.17,20.95-1.5,44.69-3.2,67.84-.2,27.62,3.53,49.1,12.41,63.86,26.4,10.79,10.23,17.71,22.92,20.8,37.77l.22,1.06c2.34,11.25,2.26,22.86-.22,34.08h0c-4.61,20.84-18.06,37.93-39.35,49.49-21.15,11.49-55.17,19.9-95.07,18.41-.28.06-.55.14-.83.2-26.94-.42-51.88-4.26-74.21-11.46-22.41-7.22-42.76-17.99-60.5-32.01l-5.4-4.27,3.9-5.76c12.45-18.36,36.24-25.02,56.56-15.82,29,13.12,58.65,19.77,88.12,19.77,40.13,0,65.51-13.49,75.05-25.04,3.41-4.13,5.15-8.24,5.18-12.22.2,2.7.2,5.35.06,7.96.16-2.69.14-5.43-.06-8.21,0-.93-.08-1.86-.25-2.78-2.3-11.96-12.32-19.98-30.61-24.53-18.13-4.5-43.34-5.39-77.08-2.7-43.1,3.44-74.24-3.39-92.53-20.29-2.63-2.43-4.99-5.05-7.08-7.87Z"/>
  </g>
</svg>