<?xml version="1.0" encoding="UTF-8"?>
<svg id="Camada_2" data-name="Camada 2" xmlns="http://www.w3.org/2000/svg" viewBox="0 0 277.29 258.89">
  <g id="Camada_1-2" data-name="Camada 1">
    <path d="M21.26,113.68c-7.87-10.62-11.85-23.95-11.85-39.77,0-23.53,12.99-42.81,37.57-55.77C69.48,6.27,101.52,0,139.63,0c51.21,0,74.88,8.65,114.09,22.98l7.19,2.63-2.87,7.1c-3.87,9.6-11.13,17.37-20.44,21.89-9.32,4.52-19.92,5.41-29.85,2.5-25.37-7.45-51.72-8.45-74.15-8.45-20.39,0-40.56,3.32-55.35,9.11-12.59,4.93-20.42,11.41-20.42,16.91,0,5.71,1.64,11.58,13.57,15.84,11.39,4.04,29.96,2.71,51.47,1.17,20.95-1.5,44.69-3.2,67.84-.2,27.62,3.53,49.1,12.41,63.86,26.4,10.79,10.23,17.71,22.92,20.8,37.77l.22,1.06c2.34,11.25,2.26,22.86-.22,34.08h0c-4.61,20.84-18.06,37.93-39.35,49.49-21.15,11.49-55.17,19.9-95.07,18.41-.28.06-.55.14-.83.2-26.94-.42-51.88-4.26-74.21-11.46-22.41-7.22-42.76-17.99-60.5-32.01l-5.4-4.27,3.9-5.76c12.45-18.36,36.24-25.02,56.56-15.82,29,13.12,58.65,19.77,88.12,19.77,40.13,0,65.51-13.49,75.05-25.04,3.41-4.13,5.15-8.24,5.18-12.22.2,2.7.2,5.35.06,7.96.16-2.69.14-5.43-.06-8.21,0-.93-.08-1.86-.25-2.78-2.3-11.96-12.32-19.98-30.61-24.53-18.13-4.5-43.34-5.39-77.08-2.7-43.1,3.44-74.24-3.39-92.53-20.29-2.63-2.43-4.99-5.05-7.08-7.87Z"/>
  </g>
</svg>