<svg id="Camada_2" data-name="Camada 2" xmlns="http://www.w3.org/2000/svg" viewBox="0 0 1900 509.1">
  <defs>
    <style>
      .cls-1 {
        fill: #ffffff;
      }
    </style>
  </defs>
  <g id="Camada_1-2" data-name="Camada 1">
    <g>
      <g>
        <path class="cls-1" d="M730.93,496.78c-.17,0-.43.08-.61.17-3.38,2.95-8.84,6.07-17.26,6.07-14.74,0-24.62-9.97-24.62-24.88s9.97-25.06,24.62-25.06c8.59,0,13.96,3.12,17.34,6.07.17.17.43.26.61.26.26,0,.43-.09.61-.26l2.95-2.78c.35-.35.35-.78,0-1.13-5.89-5.46-13.53-8.06-21.5-8.06-15.34,0-30.69,10.31-30.69,30.86,0,18.38,12.31,30.95,30.69,30.95,7.98,0,15.78-2.51,21.59-7.98.34-.34.34-.87,0-1.21l-3.04-2.78c-.17-.17-.43-.26-.69-.26Z"/>
        <path class="cls-1" d="M768.7,482.04c10.06-1.13,15.95-7.11,16.04-16.99-.08-10.84-7.28-17.08-19.33-17.08h-17.08c-.52,0-.87.35-.87.87v58.43c0,.52.35.87.87.87h4.42c.52,0,.87-.34.87-.87v-25.06h8.67l15.44,25.49c.17.26.52.43.87.43h5.72c.69,0,.95-.34.52-1.04l-16.13-25.06ZM753.62,476.67v-23.23h11.96c8.67,0,13.09,4.51,13.09,11.7s-4.43,11.53-13.09,11.53h-11.96Z"/>
        <path class="cls-1" d="M803.62,502.59v-22.37h21.94c.52,0,.87-.34.87-.86v-3.82c0-.52-.35-.87-.87-.87h-21.94v-21.15h26.1c.52,0,.87-.34.87-.87v-3.81c0-.52-.35-.87-.87-.87h-31.3c-.52,0-.87.35-.87.87v58.43c0,.52.34.87.87.87h32.17c.43,0,.78-.34.78-.78v-3.9c0-.52-.34-.87-.87-.87h-26.88Z"/>
        <path class="cls-1" d="M889.09,496.78c-.17,0-.43.08-.61.17-3.38,2.95-8.84,6.07-17.25,6.07-14.74,0-24.62-9.97-24.62-24.88s9.97-25.06,24.62-25.06c8.58,0,13.96,3.12,17.34,6.07.17.17.43.26.61.26.26,0,.43-.09.61-.26l2.95-2.78c.35-.35.35-.78,0-1.13-5.89-5.46-13.53-8.06-21.5-8.06-15.35,0-30.69,10.31-30.69,30.86,0,18.38,12.31,30.95,30.69,30.95,7.98,0,15.78-2.51,21.59-7.98.35-.34.35-.87,0-1.21l-3.03-2.78c-.17-.17-.43-.26-.7-.26Z"/>
        <path class="cls-1" d="M906.4,447.97c-.43,0-.78.35-.78.87v58.52c0,.43.35.78.87.78h4.42c.43,0,.78-.34.78-.78v-58.52c0-.52-.35-.87-.87-.87h-4.43Z"/>
        <path class="cls-1" d="M931.62,464.88c-3.21,0-5.38,2.08-5.38,5.29s2.16,5.29,5.38,5.29,5.37-2.08,5.37-5.29-2.08-5.29-5.37-5.29Z"/>
        <path class="cls-1" d="M931.62,498.34c-3.21,0-5.38,2.08-5.38,5.21s2.16,5.37,5.38,5.37,5.37-2.17,5.37-5.37-2.08-5.21-5.37-5.21Z"/>
        <path class="cls-1" d="M992.55,471.03c-6.24,0-10.92,2.95-13.61,6.5h-.26c1.3-9.27,7.63-18.03,19.59-20.03,2.17-.34,4.16-.43,5.73-.34v-6.25c-1.39,0-3.3.09-5.55.43-7.11.87-13.35,3.73-18.04,8.33-5.55,5.55-9.53,14.3-9.53,25.4,0,14.65,7.89,24.02,19.94,24.02s18.73-9.54,18.73-19.86c0-11.01-7.03-18.21-16.99-18.21ZM990.81,503.2c-7.98,0-12.22-6.85-12.39-16.13,0-1.39.35-2.51.86-3.38,2.08-4.07,6.33-6.93,10.93-6.93,7.02,0,11.61,4.86,11.61,12.92s-4.42,13.53-11.01,13.53Z"/>
        <path class="cls-1" d="M1044.46,478.14v-.26c6.93-3.3,9.27-8.41,9.27-13.18,0-7.02-5.46-13.87-16.39-13.87-9.88,0-17.43,6.07-17.43,15,0,4.85,2.69,9.71,8.93,12.66l.09.26c-6.94,2.95-11.19,7.98-11.19,15.09,0,8.24,7.11,15.26,18.9,15.26,10.76,0,19.16-6.59,19.16-16.39,0-6.85-4.33-11.79-11.36-14.57ZM1027.12,465.31c0-4.86,3.47-9.01,9.8-9.01,6.84,0,9.53,4.68,9.53,9.19,0,5.12-3.72,8.59-8.58,10.23-6.5-1.74-10.75-4.77-10.75-10.41ZM1036.83,503.55c-7.19,0-11.53-5.03-11.27-10.75,0-5.37,3.55-9.71,10.15-11.62,7.63,2.17,12.4,5.46,12.4,12.31,0,5.81-4.42,10.06-11.27,10.06Z"/>
        <path class="cls-1" d="M1095.85,451.78h-8.23l-25.14,35.98v5.03h26.18v15.35h7.19v-15.35h7.89v-5.98h-7.89v-35.03ZM1088.66,468v18.81h-18.46v-.17l13.78-19.16c1.56-2.6,2.95-5.03,4.68-8.32h.26c-.17,2.95-.26,5.89-.26,8.84Z"/>
        <polygon class="cls-1" points="1112.75 458.11 1140.31 458.11 1140.31 458.29 1115.87 508.14 1123.75 508.14 1148.29 456.81 1148.29 451.78 1112.75 451.78 1112.75 458.11"/>
        <path class="cls-1" d="M1160.15,479.88h22.97c.48,0,.87.39.87.87v3.99c0,.48-.39.87-.87.87h-22.97c-.48,0-.87-.39-.87-.87v-3.99c0-.48.39-.87.87-.87Z"/>
        <path class="cls-1" d="M1216.75,447.97h-4.34c-.52,0-.87.35-.87.87l.09,45.61c-.17,6.24-2.08,8.58-7.2,8.58-3.03,0-6.76-2.6-8.41-3.81-.26-.17-.43-.26-.69-.26s-.52.17-.69.43l-2.08,3.55c-.26.43-.17.95.17,1.21,1.56,1.39,5.98,4.77,11.53,4.86,8.58,0,13.52-5.11,13.35-14.13l-.09-46.03c0-.52-.26-.87-.78-.87Z"/>
      </g>
      <path class="cls-1" d="M1853.3,103.23c-23.91-18.23-61.17-33.26-97.93-33.26s-79.08,14.06-103.28,32.3c-26.68,20.14-43.84,52.37-46.7,84.15v-108.68h-45.1l-.57,180.2-152.84-180.2h-62.85v198.13h-3.15l-111.18-198.13h-51.7l-100.44,186.61-155.8-.38,160.58-146.42-.19-39.81h-203.79l.09,21.2c.06,12.89,10.54,23.3,23.43,23.27l109.13-.31-155.48,142.08v.07h-6.51V77.73h-44.51l-1.48,188.22-157.93-190.11h-62.97v188.55l-195.58-.28-.43-52.64,125.39.28-.28-44.44-124.54.28-.14-47.27,162.46.14.14-44.63h-207.18v117.43c-3.83-18.45-12.43-34.2-25.82-46.91-18.32-17.38-45-28.41-79.3-32.79-28.76-3.72-58.24-1.61-84.25.25-26.71,1.91-49.77,3.56-63.92-1.45-14.8-5.29-16.85-12.58-16.85-19.66s9.72-14.88,25.35-21c18.36-7.19,43.41-11.31,68.73-11.31,27.85,0,60.58,1.25,92.09,10.5,12.33,3.62,25.5,2.52,37.07-3.1,11.56-5.61,20.57-15.27,25.38-27.19l3.56-8.82-8.93-3.26C266.37,10.74,236.98,0,173.39,0c-47.32,0-87.11,7.79-115.06,22.52C27.82,38.61,11.69,62.56,11.69,91.78c0,24.85,7.91,44.76,23.5,59.16,22.72,20.98,61.38,29.46,114.91,25.19,41.89-3.34,73.2-2.24,95.71,3.35,22.72,5.64,35.15,15.61,38.02,30.46.22,1.14.33,2.3.31,3.45.25,3.46.27,6.86.08,10.2.18-3.24.17-6.53-.08-9.88v-.02c-.04,4.97-2.2,10.07-6.44,15.2-11.84,14.34-43.36,31.09-93.2,31.09-36.6,0-73.41-8.26-109.43-24.55-25.23-11.42-54.77-3.15-70.23,19.65l-4.84,7.15,6.71,5.3c22.03,17.41,47.31,30.79,75.13,39.75,27.72,8.93,58.7,13.71,92.15,14.23.34-.07.68-.17,1.03-.25,49.55,1.85,91.8-8.6,118.06-22.87,26.44-14.37,43.14-35.58,48.87-61.46v71.5h261.37c12.9,0,23.37-10.46,23.37-23.37V122.88l153.55,185.53h68.78v-.28h6.51v.28h249.45l24.53-45.19,154.72.19,23.06,45h57.87c12.93,0,23.39-10.49,23.37-23.41l-.33-160.65,155.86,184.07h61.33v-104.16c3.16,32.12,23.68,62.31,48.9,84.13,20.95,18.11,62.69,33.12,100.34,33.12s77.08-14.54,100.98-32.47c28.99-21.82,44.39-58.59,44.39-93.86s-17.71-69.82-46.7-91.94ZM1153.85,218.12l50.38-95.67,53.97,94.82-104.35.84ZM1750.21,276.24c-62.1,2.72-97.07-32.36-97.07-81.07s41.58-80.9,101.95-80.9c27.2,0,49.3,11.11,66.64,23.66,21.52,15.84,28.87,32.7,28.87,57.8,0,48.42-40,77.87-100.38,80.51Z"/>
      <g>
        <path class="cls-1" d="M286.81,359.11v60.11h-7.74v-60.11h7.74Z"/>
        <path class="cls-1" d="M360.12,359.55v59.68h-7.74v-44.5l-19.56,44.5h-5.44l-19.64-44.58v44.58h-7.74v-59.68h8.33l21.77,49.33,21.77-49.33h8.25Z"/>
        <path class="cls-1" d="M385.04,415.9c-4.54-2.61-8.12-6.27-10.76-10.95-2.64-4.69-3.95-9.96-3.95-15.82s1.32-11.14,3.95-15.82c2.64-4.68,6.22-8.33,10.76-10.95,4.53-2.61,9.55-3.92,15.05-3.92s10.6,1.31,15.14,3.92c4.53,2.62,8.11,6.25,10.72,10.91,2.61,4.66,3.91,9.95,3.91,15.87s-1.31,11.21-3.91,15.87c-2.61,4.66-6.18,8.29-10.72,10.91-4.54,2.62-9.58,3.92-15.14,3.92s-10.52-1.31-15.05-3.92ZM411.27,410.08c3.32-1.95,5.92-4.74,7.82-8.36,1.9-3.62,2.85-7.82,2.85-12.59s-.95-9.04-2.85-12.63c-1.9-3.59-4.49-6.37-7.78-8.32-3.29-1.95-7.03-2.93-11.23-2.93s-7.94.98-11.23,2.93c-3.29,1.96-5.88,4.73-7.78,8.32-1.9,3.59-2.85,7.8-2.85,12.63s.95,8.97,2.85,12.59c1.9,3.62,4.51,6.41,7.82,8.36,3.32,1.96,7.04,2.93,11.18,2.93s7.87-.98,11.18-2.93Z"/>
        <path class="cls-1" d="M475.65,390.94c1.79,1.44,3.2,3.22,4.25,5.35,1.05,2.13,1.57,4.4,1.57,6.81,0,3.05-.77,5.79-2.3,8.24-1.53,2.44-3.76,4.37-6.68,5.78-2.92,1.41-6.37,2.11-10.33,2.11h-22.11v-60.11h21.26c4.02,0,7.45.68,10.29,2.03,2.83,1.35,4.96,3.18,6.38,5.48,1.42,2.3,2.13,4.89,2.13,7.76,0,3.57-.95,6.51-2.85,8.84-1.9,2.33-4.41,4.01-7.53,5.04,2.15.35,4.12,1.24,5.91,2.67ZM447.8,385.07h13.01c3.63,0,6.43-.86,8.42-2.59,1.98-1.72,2.98-4.11,2.98-7.16s-.99-5.43-2.98-7.16c-1.99-1.72-4.85-2.59-8.59-2.59h-12.84v19.49ZM470.5,409.99c2.15-1.84,3.23-4.4,3.23-7.67s-1.13-5.96-3.4-7.89c-2.27-1.93-5.3-2.89-9.1-2.89h-13.44v21.21h13.69c3.85,0,6.86-.92,9.01-2.76Z"/>
        <path class="cls-1" d="M499.93,359.11v60.11h-7.74v-60.11h7.74Z"/>
        <path class="cls-1" d="M520.85,412.84h20.75v6.38h-28.49v-60.11h7.74v53.72Z"/>
        <path class="cls-1" d="M557.58,359.11v60.11h-7.74v-60.11h7.74Z"/>
        <path class="cls-1" d="M605.8,405.85h-25.85l-4.76,13.37h-8.16l21.43-59.76h8.93l21.35,59.76h-8.16l-4.76-13.37ZM603.59,399.47l-10.72-30.35-10.72,30.35h21.43ZM601.21,346.09l-18.11,9.83v-5.86l18.11-10.78v6.81Z"/>
        <path class="cls-1" d="M659.29,419.22l-14.12-24.58h-9.35v24.58h-7.74v-60.11h19.13c4.48,0,8.26.78,11.35,2.33,3.09,1.55,5.4,3.65,6.93,6.3,1.53,2.64,2.3,5.66,2.3,9.05,0,4.14-1.18,7.79-3.53,10.95-2.35,3.16-5.88,5.26-10.59,6.29l14.88,25.18h-9.27ZM635.82,388.35h11.4c4.19,0,7.34-1.05,9.44-3.15,2.1-2.1,3.15-4.9,3.15-8.41s-1.03-6.32-3.1-8.28c-2.07-1.95-5.23-2.93-9.48-2.93h-11.4v22.77Z"/>
        <path class="cls-1" d="M687.52,359.11v60.11h-7.74v-60.11h7.74Z"/>
        <path class="cls-1" d="M735.74,405.85h-25.85l-4.76,13.37h-8.16l21.43-59.76h8.93l21.35,59.76h-8.16l-4.76-13.37ZM733.53,399.47l-10.72-30.35-10.72,30.35h21.43Z"/>
        <path class="cls-1" d="M788.47,365.5v20.09h21.6v6.47h-21.6v20.7h24.15v6.47h-31.89v-60.19h31.89v6.47h-24.15Z"/>
        <path class="cls-1" d="M854.8,365.5v20.09h21.6v6.47h-21.6v20.7h24.15v6.47h-31.89v-60.19h31.89v6.47h-24.15Z"/>
        <path class="cls-1" d="M950.81,359.55v59.68h-7.74v-44.5l-19.56,44.5h-5.44l-19.64-44.58v44.58h-7.74v-59.68h8.33l21.77,49.33,21.77-49.33h8.25Z"/>
        <path class="cls-1" d="M998.47,389.17c-3.37,3.31-8.52,4.96-15.44,4.96h-11.4v25.09h-7.74v-60.11h19.13c6.69,0,11.78,1.64,15.26,4.92,3.49,3.28,5.23,7.5,5.23,12.68s-1.69,9.16-5.06,12.46ZM992.56,384.81c2.04-1.9,3.06-4.6,3.06-8.11,0-7.42-4.2-11.12-12.59-11.12h-11.4v22.08h11.4c4.31,0,7.48-.95,9.52-2.85Z"/>
        <path class="cls-1" d="M1044.35,419.22l-14.12-24.58h-9.35v24.58h-7.74v-60.11h19.13c4.48,0,8.26.78,11.35,2.33,3.09,1.55,5.4,3.65,6.93,6.3,1.53,2.64,2.3,5.66,2.3,9.05,0,4.14-1.18,7.79-3.53,10.95-2.35,3.16-5.88,5.26-10.59,6.29l14.88,25.18h-9.27ZM1020.88,388.35h11.4c4.19,0,7.34-1.05,9.44-3.15,2.1-2.1,3.15-4.9,3.15-8.41s-1.03-6.32-3.1-8.28c-2.07-1.95-5.23-2.93-9.48-2.93h-11.4v22.77Z"/>
        <path class="cls-1" d="M1072.59,365.5v20.09h21.6v6.47h-21.6v20.7h24.15v6.47h-31.89v-60.19h31.89v6.47h-24.15Z"/>
        <path class="cls-1" d="M1116.21,365.5v20.09h21.6v6.47h-21.6v20.7h24.15v6.47h-31.89v-60.19h31.89v6.47h-24.15Z"/>
        <path class="cls-1" d="M1198.7,419.22h-7.74l-31.13-47.86v47.86h-7.74v-60.19h7.74l31.13,47.77v-47.77h7.74v60.19Z"/>
        <path class="cls-1" d="M1247.13,362.78c4.73,2.44,8.36,5.94,10.89,10.48,2.52,4.54,3.78,9.89,3.78,16.04s-1.26,11.48-3.78,16c-2.52,4.51-6.15,7.96-10.89,10.35-4.73,2.39-10.33,3.58-16.8,3.58h-18.45v-60.11h18.45c6.46,0,12.06,1.22,16.8,3.66ZM1247.85,406.59c4.02-4.11,6.04-9.87,6.04-17.29s-2.03-13.31-6.08-17.51c-4.05-4.2-9.88-6.3-17.48-6.3h-10.72v47.26h10.72c7.65,0,13.49-2.06,17.52-6.17Z"/>
        <path class="cls-1" d="M1279.74,359.11v60.11h-7.74v-60.11h7.74Z"/>
        <path class="cls-1" d="M1353.05,359.55v59.68h-7.74v-44.5l-19.56,44.5h-5.44l-19.64-44.58v44.58h-7.74v-59.68h8.33l21.77,49.33,21.77-49.33h8.25Z"/>
        <path class="cls-1" d="M1373.88,365.5v20.09h21.6v6.47h-21.6v20.7h24.15v6.47h-31.89v-60.19h31.89v6.47h-24.15Z"/>
        <path class="cls-1" d="M1456.37,419.22h-7.74l-31.13-47.86v47.86h-7.74v-60.19h7.74l31.13,47.77v-47.77h7.74v60.19Z"/>
        <path class="cls-1" d="M1506.04,359.11v6.38h-16.16v53.72h-7.74v-53.72h-16.24v-6.38h40.14Z"/>
        <path class="cls-1" d="M1527.38,415.9c-4.54-2.61-8.12-6.27-10.76-10.95-2.64-4.69-3.95-9.96-3.95-15.82s1.32-11.14,3.95-15.82c2.64-4.68,6.22-8.33,10.76-10.95,4.53-2.61,9.55-3.92,15.05-3.92s10.6,1.31,15.14,3.92c4.53,2.62,8.11,6.25,10.72,10.91,2.61,4.66,3.91,9.95,3.91,15.87s-1.31,11.21-3.91,15.87c-2.61,4.66-6.18,8.29-10.72,10.91-4.54,2.62-9.58,3.92-15.14,3.92s-10.52-1.31-15.05-3.92ZM1553.61,410.08c3.32-1.95,5.92-4.74,7.82-8.36,1.9-3.62,2.85-7.82,2.85-12.59s-.95-9.04-2.85-12.63c-1.9-3.59-4.49-6.37-7.78-8.32-3.29-1.95-7.03-2.93-11.23-2.93s-7.94.98-11.23,2.93c-3.29,1.96-5.88,4.73-7.78,8.32-1.9,3.59-2.85,7.8-2.85,12.63s.95,8.97,2.85,12.59c1.9,3.62,4.51,6.41,7.82,8.36,3.32,1.96,7.04,2.93,11.18,2.93s7.87-.98,11.18-2.93Z"/>
        <path class="cls-1" d="M1590.69,417.71c-3.09-1.41-5.52-3.36-7.27-5.86-1.76-2.5-2.67-5.39-2.72-8.67h8.25c.28,2.82,1.43,5.19,3.44,7.11,2.01,1.93,4.94,2.89,8.8,2.89s6.59-.93,8.72-2.8c2.13-1.87,3.19-4.27,3.19-7.2,0-2.3-.62-4.17-1.87-5.61-1.25-1.44-2.81-2.53-4.68-3.28-1.87-.75-4.39-1.55-7.57-2.41-3.91-1.03-7.04-2.07-9.4-3.1-2.35-1.03-4.37-2.66-6.04-4.87-1.67-2.21-2.51-5.19-2.51-8.93,0-3.28.82-6.18,2.47-8.71,1.64-2.53,3.95-4.48,6.93-5.86,2.98-1.38,6.39-2.07,10.25-2.07,5.56,0,10.11,1.41,13.65,4.23,3.54,2.82,5.54,6.55,6,11.21h-8.5c-.28-2.3-1.47-4.33-3.57-6.08-2.1-1.75-4.88-2.63-8.33-2.63-3.23,0-5.87.85-7.91,2.54-2.04,1.7-3.06,4.07-3.06,7.11,0,2.19.61,3.97,1.83,5.35,1.22,1.38,2.72,2.43,4.51,3.15,1.79.72,4.3,1.54,7.53,2.46,3.91,1.09,7.06,2.17,9.44,3.23,2.38,1.06,4.42,2.7,6.12,4.92,1.7,2.21,2.55,5.22,2.55,9.01,0,2.93-.77,5.69-2.3,8.28s-3.8,4.69-6.8,6.3c-3.01,1.61-6.55,2.41-10.63,2.41s-7.41-.7-10.5-2.11Z"/>
      </g>
    </g>
  </g>
</svg>