<svg width="63" height="58" viewBox="0 0 63 58" fill="none" xmlns="http://www.w3.org/2000/svg">
<path d="M31.6235 0L48.9424 2.04106C49.3923 2.04106 49.6172 2.26784 49.8421 2.49462L62.6626 19.957C63.1125 20.4106 63.1125 21.0909 62.6626 21.5445L32.0733 57.8299C31.8484 58.0567 31.3986 58.0567 31.1736 57.8299L0.584363 21.5445C-0.0904012 21.0909 -0.0904012 20.4106 0.13452 19.957L12.955 2.49462C13.18 2.26784 13.4049 2.04106 13.8547 2.04106L31.1736 0H31.6235ZM35.2222 3.62854H34.7724C34.7724 3.62854 34.5475 3.85533 34.7724 4.08211L44.444 16.3284C44.444 16.5552 44.6689 16.5552 44.6689 16.782C44.6689 17.2356 44.444 17.4624 43.9942 17.4624H18.803C18.5781 17.4624 18.5781 17.4624 18.3531 17.2356C18.1282 17.0088 18.1282 16.5552 18.1282 16.3284L28.0248 4.08211V3.62854H27.5749L14.3046 17.0088C14.3046 17.0088 14.0796 17.2356 13.8547 17.2356C13.6298 17.2356 13.4049 17.0088 13.4049 16.782L13.8547 7.0303C13.8547 6.80352 13.8547 6.80352 13.6298 6.80352C13.4049 6.80352 13.4049 6.80352 13.4049 7.0303L10.9307 18.1427C10.9307 18.5963 10.4809 18.8231 10.256 18.8231L3.95818 20.1838C3.73326 20.1838 3.73326 20.4106 3.73326 20.4106C3.73326 20.6373 3.73326 20.6373 3.95818 20.6373H10.0311C10.4809 20.6373 10.7058 20.8641 10.9307 21.0909L25.7755 47.8514C25.7755 48.0782 26.0005 48.0782 26.2254 48.0782C26.4503 48.0782 26.4503 47.8514 26.4503 47.6246L14.7544 21.998V21.7713C14.7544 21.3177 14.9793 21.0909 15.4292 20.8641H47.8178C48.2677 21.0909 48.2677 21.5445 48.2677 21.7713L36.3468 47.3979C36.3468 47.6246 36.3468 47.8514 36.5718 47.8514C36.7967 47.8514 37.0216 47.8514 37.0216 47.6246L51.6415 21.3177C51.8664 21.0909 52.0913 20.8641 52.5412 20.8641H58.614C58.839 20.8641 58.839 20.8641 58.839 20.6373C58.839 20.4106 58.839 20.4106 58.614 20.4106L52.3162 19.0499C51.8664 19.0499 51.6415 18.5963 51.4166 18.3695L49.3923 7.0303C49.3923 6.80352 49.1673 6.80352 49.1673 6.80352C48.9424 6.80352 48.9424 6.80352 48.9424 7.0303L49.3923 16.782C49.3923 17.0088 49.3923 17.0088 49.1673 17.2356C48.9424 17.4624 48.7175 17.4624 48.4926 17.2356L35.2222 3.62854Z" fill="black"/>
</svg>
