<svg width="47" height="47" viewBox="0 0 47 47" fill="none" xmlns="http://www.w3.org/2000/svg">
<path d="M23.3139 0V3.35714C34.531 3.35714 43.6163 12.3711 43.6163 23.5C43.6163 34.6289 34.531 43.6429 23.3139 43.6429V47C36.392 47 47 36.4754 47 23.5C47 10.5246 36.392 0 23.3139 0ZM10.185 38.8421L8.00252 41.4104C10.0835 43.1561 12.469 44.5493 15.0745 45.5061L16.225 42.3504C13.9917 41.5279 11.9446 40.3361 10.1681 38.8421H10.185ZM3.33297 26.8571L0 27.5454C0.473722 30.2814 1.42117 32.8496 2.77466 35.1661L5.70158 33.5714C4.55112 31.5907 3.73902 29.1904 3.33297 26.8571ZM5.70158 13.4286L2.77466 11.75C1.43808 14.0664 0.490641 16.7186 0 19.4546L3.33297 20.0421C3.73902 17.7089 4.55112 15.4261 5.70158 13.4454V13.4286ZM16.2419 4.63286L15.0914 1.47714C12.486 2.43393 10.1004 3.82714 8.01944 5.57286L10.2019 8.14107C11.9784 6.64714 14.0256 5.45536 16.2588 4.63286H16.2419Z" fill="black"/>
<path d="M32 16.6111V13.1667H25.2V8H21.8V13.1667H18.4C16.5249 13.1667 15 14.7115 15 16.6111V21.7778C15 23.6774 16.5249 25.2222 18.4 25.2222H28.6V30.3889H15V33.8333H21.8V39H25.2V33.8333H28.6C30.4751 33.8333 32 32.2885 32 30.3889V25.2222C32 23.3226 30.4751 21.7778 28.6 21.7778H18.4V16.6111H32Z" fill="black"/>
</svg>
