<?xml version="1.0" encoding="UTF-8"?>
<svg id="Camada_2" data-name="Camada 2" xmlns="http://www.w3.org/2000/svg" viewBox="0 0 896.3 700">
  <g id="Camada_1-2" data-name="Camada 1">
    <g>
      <path d="M273.89,123.84c-82.78,0-150.08,67.33-150.08,150.08s67.3,150.07,150.08,150.07,150.05-67.33,150.05-150.07-67.3-150.08-150.05-150.08ZM283.73,386.87c-62.37,5.46-117.37-40.74-122.82-103.1-5.4-62.38,40.75-117.37,103.12-122.79,62.4-5.45,117.4,40.73,122.8,103.08,5.43,62.41-40.72,117.39-103.09,122.81Z"/>
      <path d="M691.29,363.7c-70.91-1.49-129.81,54.99-131.28,125.9-1.48,70.91,55.01,129.82,125.91,131.3,70.91,1.49,129.81-55,131.29-125.9,1.5-70.91-54.98-129.81-125.92-131.3ZM728.77,557.72c-37.79,22.34-86.61,9.38-108.31-28.99-20.35-36.04-8.15-83.49,27.05-105.27,37.48-23.21,86.51-10.96,108.86,26.75,22.06,37.3,9.71,85.44-27.59,107.51Z"/>
      <path d="M534.31,362.04c7.01-20.64,11.58-42.3,13.45-64.62l-44.56-21.59c.05-7.22-.21-14.5-.86-21.81-.18-2.53-.52-5.01-.81-7.52l41.92-26.49c-4.36-22.01-11.29-43.03-20.51-62.68l-49.52,3.59c-4.83-8.58-10.23-16.82-16.09-24.62l23.05-43.84c-14.56-16.56-31.09-31.33-49.16-44l-41.06,27.83c-8.41-4.96-17.15-9.41-26.21-13.31l-1.95-49.48c-20.63-7.01-42.31-11.58-64.6-13.5l-21.6,44.6c-7.22-.06-14.46.22-21.8.85-2.55.22-5.04.54-7.53.84l-26.45-41.97c-22.03,4.4-43.06,11.33-62.73,20.53l3.61,49.52c-8.57,4.85-16.82,10.22-24.6,16.11l-43.87-23.06c-16.59,14.59-31.36,31.11-43.97,49.2l27.86,41.04c-4.99,8.42-9.48,17.16-13.34,26.19l-49.5,1.94C6.44,206.43,1.9,228.07,0,250.43l44.59,21.58c-.05,7.23.19,14.5.82,21.81.23,2.53.54,5,.88,7.52l-41.97,26.47c4.41,22.01,11.31,43.03,20.53,62.69l49.5-3.59c4.85,8.57,10.23,16.78,16.1,24.61l-23.06,43.82c14.56,16.62,31.13,31.38,49.19,44.01l41.04-27.84c8.43,5.01,17.18,9.47,26.21,13.34l1.95,49.49c20.63,6.99,42.25,11.57,64.57,13.46l21.65-44.59c7.19.04,14.49-.2,21.81-.83,2.51-.2,5-.55,7.47-.87l26.47,42c22.06-4.41,43.06-11.32,62.74-20.52l-3.58-49.53c8.53-4.88,16.76-10.24,24.6-16.1l43.84,23.05c16.56-14.59,31.33-31.1,43.97-49.19l-27.81-41.04c4.94-8.43,9.4-17.18,13.32-26.23l49.47-1.93ZM273.89,435.54c-89.14,0-161.63-72.5-161.63-161.62s72.49-161.62,161.63-161.62,161.61,72.51,161.61,161.62-72.5,161.62-161.61,161.62Z"/>
      <path d="M895.31,512.69c1.46-14.96,1.33-30.04-.46-45.13l-34.99-8.37c-1.84-9.17-4.44-18.32-7.71-27.29l25.64-25.3c-3.08-6.81-6.56-13.52-10.45-20.07-3.85-6.53-8.05-12.78-12.54-18.77l-34.52,10.32c-6.28-7.24-13.03-13.89-20.24-19.88l9.56-34.7c-12.36-8.83-25.52-16.22-39.32-22.14l-24.79,26.22c-8.93-3.09-18.1-5.45-27.38-7.06l-9.16-34.92c-14.93-1.45-30.03-1.28-45.03.56l-8.44,34.98c-9.19,1.78-18.27,4.37-27.23,7.69l-25.33-25.62c-6.75,3.05-13.52,6.49-20.06,10.4-6.54,3.86-12.8,8.07-18.77,12.51l10.28,34.58c-7.21,6.29-13.86,13.03-19.86,20.23l-34.7-9.53c-8.85,12.31-16.22,25.49-22.14,39.26l26.19,24.81c-3.09,8.94-5.37,18.11-7.01,27.39l-34.88,9.16c-1.48,14.93-1.32,30.04.47,45.09l35.04,8.34c1.79,9.22,4.36,18.32,7.63,27.33l-25.62,25.29c3.07,6.81,6.51,13.49,10.41,20.01,3.89,6.57,8.07,12.85,12.54,18.81l34.57-10.29c6.26,7.21,13.06,13.86,20.23,19.84l-9.51,34.74c12.34,8.81,25.47,16.24,39.22,22.08l24.84-26.17c8.96,3.12,18.04,5.44,27.41,7.03l9.13,34.91c14.9,1.41,30.04,1.32,45.09-.48l8.34-35.02c9.21-1.78,18.32-4.37,27.28-7.69l25.41,25.64c6.75-3.04,13.44-6.51,19.99-10.39,6.56-3.87,12.77-8.07,18.76-12.57l-10.28-34.52c7.22-6.27,13.87-13.06,19.86-20.23l34.73,9.52c8.83-12.33,16.25-25.5,22.09-39.27l-26.19-24.84c3.07-8.88,5.45-18.02,7.06-27.35l34.88-9.12ZM822.78,495.11c-1.56,73.98-62.99,132.91-136.99,131.35-73.97-1.55-132.9-63-131.34-136.98,1.53-73.97,62.97-132.9,136.97-131.35,73.98,1.55,132.89,63,131.36,136.98Z"/>
    </g>
  </g>
</svg>