<svg width="52" height="59" viewBox="0 0 52 59" fill="none" xmlns="http://www.w3.org/2000/svg">
<path d="M26.02 15.3613C25.7243 15.1271 25.36 15 24.985 15C24.61 15 24.2457 15.1271 23.95 15.3613L0 34.324L2.07167 36.9843L5 34.6658V55.6153C5.00176 56.5124 5.35352 57.3723 5.97826 58.0067C6.603 58.641 7.44982 58.9982 8.33333 59H41.6667C42.5502 58.9982 43.397 58.641 44.0217 58.0067C44.6465 57.3723 44.9982 56.5124 45 55.6153V34.681L47.9283 36.9996L50 34.3392L26.02 15.3613ZM28.3333 55.6153H21.6667V42.0766H28.3333V55.6153ZM31.6667 55.6153V42.0766C31.6667 41.1789 31.3155 40.318 30.6904 39.6832C30.0652 39.0485 29.2174 38.6919 28.3333 38.6919H21.6667C20.7826 38.6919 19.9348 39.0485 19.3096 39.6832C18.6845 40.318 18.3333 41.1789 18.3333 42.0766V55.6153H8.33333V32.0275L25 18.8441L41.6667 32.0444V55.6153H31.6667Z" fill="black"/>
<path d="M1.67742 30L0 27.5L25.1613 8.33333L34.3871 15L46.129 3.33333H40.2581V0H52V11.6667H48.6452V5.83333L35.2258 20L25.1613 12.5L1.67742 30Z" fill="black"/>
</svg>
