<?xml version="1.0" encoding="UTF-8"?>
<svg id="Camada_2" data-name="Camada 2" xmlns="http://www.w3.org/2000/svg" viewBox="0 0 795.85 700">
  <g id="Camada_1-2" data-name="Camada 1">
    <g>
      <polygon points="63.44 670.58 50.93 670.58 50.93 700 736.68 700 736.68 670.58 724.14 670.58 63.44 670.58"/>
      <polygon points="68.17 662.08 407.05 662.08 407.05 604.77 400.85 604.77 74.35 604.77 68.17 604.77 68.17 662.08"/>
      <polygon points="397.95 0 397.93 .02 397.9 0 237.61 130.01 237.61 58.83 107.99 58.83 107.99 235.14 0 322.73 43.5 367.58 397.93 80.15 519.79 178.98 342.56 322.73 386.06 367.58 569.21 219.05 752.36 367.58 795.85 322.73 397.95 0"/>
      <path d="M407.05,366.66l-22,17.84-60.98-62.88,175.29-142.18-101.46-82.79L68.17,359.04v237.23h338.87v-229.61ZM209.52,563.52h-77.58v-173.26h77.58v173.26ZM351.93,563.52h-77.58v-173.26h77.58v173.26Z"/>
      <path d="M719.44,662.08v-303.04l-151.03-123.24-149.53,121.27v305.02h89.81v-210.96c0-33.61,27.25-60.86,60.86-60.86h0c33.61,0,60.86,27.25,60.86,60.86v210.96h89.03Z"/>
    </g>
  </g>
</svg>