<svg width="68" height="68" viewBox="0 0 68 68" fill="none" xmlns="http://www.w3.org/2000/svg">
<path d="M55.8572 68L50.7572 65.5714C46.6286 63.6285 43.7144 59.2571 43.7144 54.6428V38.8571H68.0001V54.6428C68.0001 59.2571 65.3286 63.6285 60.9572 65.5714L55.8572 68ZM48.5715 43.7143V54.6428C48.5715 57.5571 50.2715 59.9857 52.7001 61.2L55.8572 62.6571L59.0144 61.2C61.4429 59.9857 63.1429 57.3143 63.1429 54.6428V43.7143H48.5715Z" fill="black"/>
<path d="M48.5715 24.2857C51.254 24.2857 53.4286 22.1111 53.4286 19.4286C53.4286 16.746 51.254 14.5714 48.5715 14.5714C45.889 14.5714 43.7144 16.746 43.7144 19.4286C43.7144 22.1111 45.889 24.2857 48.5715 24.2857Z" fill="black"/>
<path d="M46.1429 0C34 0 24.2857 9.71429 24.2857 21.8571C24.2857 24.0429 24.5286 26.2286 25.2571 28.1714L0 53.4286V68H14.5714L38.8571 43.7143L35.4571 40.3143L28.6571 47.1143L25.2571 43.7143L21.8571 47.1143L25.2571 50.5143L21.3714 54.4L17.9714 51L14.5714 54.4L17.9714 57.8L12.6286 63.1429H4.85714V55.3714L28.6571 31.5714L30.6 29.6286L29.8714 26.7143C29.3857 25.0143 29.1429 23.5571 29.1429 21.8571C29.1429 12.3857 36.6714 4.85714 46.1429 4.85714C55.6143 4.85714 63.1429 12.3857 63.1429 21.8571C63.1429 25.5 61.9286 28.9 59.9857 31.5714H65.5714C67.0286 28.6571 67.7571 25.2571 67.7571 21.8571C68 9.71429 58.2857 0 46.1429 0Z" fill="black"/>
</svg>
