<svg width="49" height="56" viewBox="0 0 49 56" fill="none" xmlns="http://www.w3.org/2000/svg">
<path d="M45.5 22.75H49V26.25H45.5V22.75ZM38.1115 8.39475L40.586 5.92025L43.0605 8.39475L40.586 10.8693L38.1115 8.39475ZM22.75 0H26.25V3.5H22.75V0ZM8.414 10.9077L5.93775 8.4315L8.414 5.957L10.8885 8.4315L8.414 10.9077ZM0 22.75H3.5V26.25H0V22.75ZM19.25 52.5H29.75V56H19.25V52.5ZM15.75 45.5H33.25V49H15.75V45.5ZM24.5 7C14.875 7 7 14.875 7 24.5C7 32.2 10.5 35.525 13.125 37.8C14.875 39.375 15.75 40.425 15.75 42H19.25C19.25 38.85 17.325 36.925 15.4 35.175C12.95 33.075 10.5 30.625 10.5 24.5C10.5 16.8 16.8 10.5 24.5 10.5C32.2 10.5 38.5 16.8 38.5 24.5C38.5 30.625 36.05 33.075 33.6 35.175C31.675 36.925 29.75 38.675 29.75 42H33.25C33.25 40.425 34.125 39.375 35.875 37.8C38.5 35.525 42 32.2 42 24.5C42 14.875 34.125 7 24.5 7Z" fill="black"/>
</svg>
