<?xml version="1.0" encoding="UTF-8"?>
<svg id="Camada_2" data-name="Camada 2" xmlns="http://www.w3.org/2000/svg" viewBox="0 0 773.11 700">
  <g id="Camada_1-2" data-name="Camada 1">
    <g>
      <path d="M356.29,144.45c-52.69-24.21-67.66.09-83.52,42.04-17.63,46.7-33.33,81.33-52.82,108.74-36.87,51.85-104.84,83.93-159.48,115.28-56.89,32.62-77.75,103.1-44.74,160.27,27.17,47.06,83.75,68.99,135.44,52.89l74.23,61c26.69,21.93,67.76,20.18,92.24-4.3,25.61-25.61,23.42-66.56-4.56-89.54l-40.79-33.51c28.9-14.96,55.28-22.95,84.14-25.68,33.57-3.19,71.57.58,121.14,8.73,39.8,9.2,73.82-11.83,76.7-54.66,6.66-99.11-106.55-299.26-197.98-341.26ZM284.55,625.53c20.17,16.65-11.61,40.08-30.62,24.46l-58.9-48.4,35.47-20.48,54.06,44.42ZM352.2,486.91c-74.13,7.03-137.16,51.28-200,87.52-33.89,19.57-78.01,7.68-97.56-26.19-22.44-38.86-5.19-79.67,32.18-101,61.26-34.93,127.92-67.13,169.74-125.95,8.72-12.27,16.67-25.52,24.25-40.12,17.79,71.4,61.09,151.35,112.65,204.58-14.36-.44-28-.1-41.27,1.16ZM509.36,482.71c-2.17,32.25-45.83,4.1-58.53-5.63-23.82-18.27-46.25-46.39-65.37-75.14.39.01.77.01,1.16.01,26.74,0,48.42-21.68,48.42-48.42s-21.68-48.42-48.42-48.42c-17.84,0-33.42,9.65-41.82,24.01-17.5-41.95-34.22-100.7-25.35-137.42,2.49-10.29,10.11-10.1,18.16-6.4,72.3,33.23,176.95,219.88,171.74,297.41Z"/>
      <path d="M111.94,457.51c-4.14,1.75-8.26,3.51-12.42,5.21-7.17,2.91-10.62,11.09-7.7,18.26,2.92,7.17,11.09,10.62,18.26,7.7,4.32-1.76,8.45-3.5,12.75-5.31,7.14-3.01,10.49-11.24,7.48-18.38-3.01-7.14-11.24-10.49-18.38-7.48Z"/>
      <path d="M247.18,376.76c-14.06,11.6-28.25,22.17-43.14,32.04-14.79,9.8-30.19,18.84-46.76,27.42-6.9,3.55-9.6,12.03-6.05,18.93,3.55,6.89,12.03,9.6,18.93,6.05,17.54-9.09,33.81-18.63,49.4-28.96,15.5-10.27,30.45-21.42,45.45-33.8,5.98-4.92,6.84-13.77,1.92-19.75-4.92-5.98-13.77-6.85-19.75-1.92Z"/>
      <path d="M111.94,457.51c-4.14,1.75-8.26,3.51-12.42,5.21-7.17,2.91-10.62,11.1-7.7,18.27,2.92,7.17,11.09,10.62,18.26,7.7,4.32-1.76,8.45-3.5,12.75-5.31,7.14-3.01,10.49-11.24,7.48-18.38-3.01-7.14-11.24-10.49-18.38-7.48Z"/>
      <path d="M247.18,376.76c-14.06,11.6-28.25,22.17-43.13,32.04-14.8,9.8-30.2,18.84-46.76,27.42-6.9,3.55-9.6,12.03-6.05,18.93,3.55,6.89,12.03,9.6,18.93,6.05,17.54-9.09,33.81-18.63,49.4-28.96,15.5-10.27,30.45-21.42,45.45-33.8,5.98-4.92,6.84-13.77,1.92-19.75-4.92-5.98-13.77-6.85-19.75-1.92Z"/>
      <path d="M752.49,202.48c-19.2-51.39-49.95-95-88.17-128.98-39.69-35.28-87.49-60.26-138.83-72.85-12.01-2.95-24.15,4.39-27.1,16.4-2.95,12.01,4.39,24.15,16.4,27.1,44.23,10.85,85.45,32.4,119.71,62.86,33.04,29.37,59.58,66.93,76.06,111.08,10.14,27.15,15.79,54.93,17.32,82.51,1.58,28.45-1.28,56.71-8.14,83.86-3,12.01,4.3,24.19,16.31,27.19,12.01,3,24.19-4.3,27.19-16.32,7.93-31.33,11.21-64.08,9.37-97.18-1.77-31.88-8.33-64.09-20.12-95.66Z"/>
      <path d="M667.79,234.12c-13.49-36.12-34.9-66.92-61.49-91.15-27.66-25.2-60.9-43.36-96.67-53.08-11.96-3.25-24.3,3.83-27.54,15.79-3.24,11.97,3.82,24.3,15.79,27.54,29.02,7.88,55.93,22.56,78.25,42.9,21.55,19.64,38.86,44.51,49.73,73.61,6.81,18.22,10.62,36.86,11.69,55.37,1.11,19.17-.74,38.18-5.26,56.41-2.95,12.01,4.39,24.15,16.4,27.1,12.01,2.95,24.15-4.39,27.1-16.4,5.58-22.49,7.85-45.93,6.49-69.56-1.32-22.85-6.05-45.92-14.5-68.53Z"/>
      <path d="M580.74,266.63c-8.08-21.63-20.84-40.08-36.68-54.62-16.46-15.12-36.32-26.09-57.76-32.09-11.92-3.29-24.25,3.7-27.54,15.61-3.29,11.92,3.7,24.25,15.61,27.54,14.55,4.07,28.07,11.56,39.35,21.91,10.88,9.99,19.62,22.58,25.1,37.26,3.28,8.78,5.19,17.85,5.84,26.93.66,9.27-.05,18.53-2.01,27.49-2.62,12.11,5.08,24.05,17.19,26.67,12.11,2.61,24.05-5.08,26.66-17.19,2.84-12.98,3.87-26.48,2.89-40.12-.93-13.06-3.77-26.31-8.65-39.39Z"/>
    </g>
  </g>
</svg>